<?xml version="1.0" standalone="no"?>
<!DOCTYPE svg PUBLIC "-//W3C//DTD SVG 1.1//EN" "http://www.w3.org/Graphics/SVG/1.1/DTD/svg11.dtd" >
<!--
2013-9-30: Created.
-->
<svg>
<metadata>
Created by iconfont
</metadata>
<defs>

<font id="iconfont" horiz-adv-x="1024" >
  <font-face
    font-family="iconfont"
    font-weight="500"
    font-stretch="normal"
    units-per-em="1024"
    ascent="896"
    descent="-128"
  />
    <missing-glyph />
    
    <glyph glyph-name="-voice" unicode="&#61591;" d="M608.76471816-65.96250146a18.58047539 18.58047539 0 0 0-11.5120204 3.95608534l-293.80025831 228.9842086a18.73046953 18.73046953 0 0 0-7.21844912 14.79313389V586.26657217c0 5.77475947 2.66238896 11.23078184 7.21844912 14.79313389L597.25269776 830.04391464A18.74921836 18.74921836 0 0 0 627.51393653 815.25078164v-862.46406474a18.74921836 18.74921836 0 0 0-18.74921837-18.74921836z m-275.05103993 256.88304667l256.3018207-199.75417734V776.87113067l-256.3018207-199.75417735v-386.19640811zM616.48939619 221.03179073a18.74921836 18.74921836 0 0 0-7.10595351 36.11099531c48.61672471 19.87417178 81.25911387 70.87204688 81.25911386 126.91346133s-32.64239004 107.02054073-81.24036503 126.87596367a18.74921836 18.74921836 0 1 0 14.17440937 34.70480419c63.52235332-25.96766836 104.56439326-89.3962749 104.56439326-161.59951669s-41.02329112-135.63184834-104.54564356-161.61826641a18.65547247 18.65547247 0 0 0-7.10595439-1.38744141zM690.53006094 146.42864883000004a18.74921836 18.74921836 0 0 0-7.10595352 36.11099531c77.35927676 31.64868105 129.33211114 112.64530605 129.33211114 201.4978544 0 88.83379863-51.97283438 169.81167481-129.33211114 201.47910469a18.74921836 18.74921836 0 1 0 14.21190791 34.68605536c92.71488692-37.94841914 152.63739053-130.64455635 152.63738965-236.16516005 0-103.90817021-61.32869472-198.83546542-152.63738965-236.22140742a18.93671104 18.93671104 0 0 0-7.10595439-1.38744229zM759.54593516 80.15016064999998a18.74921836 18.74921836 0 0 0-7.10595352 36.11099531C855.33569404 158.35315224 924.46406386 265.95491895 924.46406386 384.03749854c0 118.06383076-69.12836982 225.66559746-172.02408222 267.77634258a18.74921836 18.74921836 0 1 0 14.21190791 34.68605448C883.45952247 638.70813691 961.96250146 517.15695205 961.96250146 384.03749854c0-135.20061651-76.66555518-253.93941914-195.31061191-302.49989561a18.58047539 18.58047539 0 0 0-7.10595439-1.38744228zM315.07695547 162.94671094H80.74921836a18.74921836 18.74921836 0 0 0-18.74921836 18.74921836V586.34156924a18.74921836 18.74921836 0 0 0 18.74921836 18.74921836h234.32773711a18.74921836 18.74921836 0 0 0 0-37.4984376H99.4984376v-367.14720146h215.57851787a18.74921836 18.74921836 0 1 0 0-37.4984376z"  horiz-adv-x="1024" />

    
    <glyph glyph-name="-mute" unicode="&#61592;" d="M606.06805888-55.07100907999995a18.57741065 18.57741065 0 0 0-11.51012109 3.9554332l-285.50349579 222.49776709a18.7273793 18.7273793 0 0 0-7.21725821 14.79069316V579.22290411c0 5.77380674 2.66194951 11.2289291 7.21725821 14.79069316L594.55793779 816.51136435a18.7273793 18.7273793 0 0 0 30.27499366-14.77194696v-838.04555391a18.74612549 18.74612549 0 0 0-18.76487257-18.76487256zM339.31068945 195.32099326000002l248.01124395-193.27255664V763.34735185l-247.99249775-193.27255752V195.32099326000002zM613.54776377 223.79635869000003a18.74612549 18.74612549 0 0 0-7.08603575 36.10503808c47.01528369 19.1960332 78.60250547 68.55458203 78.60250547 122.80587013 0 54.2325419-31.60596797 103.5910916-78.60250547 122.80587011a18.74612549 18.74612549 0 1 0 14.17207062 34.69907901c61.93719932-25.30726963 101.94143203-87.13199268 101.9414329-157.52369532s-40.00423271-132.21642568-101.94143291-157.52369443c-2.30577363-0.93730606-4.72402354-1.36846758-7.08603486-1.36846758zM685.49539414 151.30509052000002a18.74612549 18.74612549 0 0 0-7.10478193 36.1050381c75.00324903 30.7061543 125.37408955 109.19618261 125.37408954 195.29713828 0 86.13844805-50.38958584 164.60973106-125.37408954 195.27839297a18.74612549 18.74612549 0 1 0 14.20956386 34.699079c88.91287471-36.36748388 148.67552373-128.80463028 148.67552374-229.99621817 0-101.15409463-59.76264902-193.59124102-148.67552374-230.01496347-2.32451982-0.93730606-4.72402354-1.36846758-7.10478193-1.36846671zM752.55028614 86.89340185000003a18.74612549 18.74612549 0 0 0-7.10478194 36.10503809c99.78562793 40.82906162 166.84051992 145.18874443 166.84051992 259.70882696 0 114.50133633-67.05489199 218.86101914-166.84051992 259.70882695a18.74612549 18.74612549 0 1 0 14.20956387 34.68033281c113.71399893-46.52788448 190.14195411-164.83468447 190.1419541-294.38915976 0-129.59196768-76.40920898-247.89876768-190.1419541-294.42665127-2.32451982-0.93730606-4.74276972-1.38721289-7.10478194-1.38721378zM320.67704023 167.35177411999996H92.96785039a18.74612549 18.74612549 0 0 0-18.74612636 18.74612549V579.29788887a18.74612549 18.74612549 0 0 0 18.74612636 18.74612548h227.70918984a18.74612549 18.74612549 0 0 0 0-37.49225185H111.71397588v-355.70773653h208.96306435a18.74612549 18.74612549 0 1 0 0-37.49225185zM153.38661348-66a18.70863398 18.70863398 0 0 0-14.19081768 30.94985391l740.88438399 862.32178652a18.74612549 18.74612549 0 1 0 28.43787304-24.44494834l-740.90313017-862.32178652A18.78361787 18.78361787 0 0 0 153.38661348-66z"  horiz-adv-x="1024" />

    
    <glyph glyph-name="-next" unicode="&#59049;" d="M686.08 448L339.2 688.64c-34.56 24.32-83.2-1.28-83.2-43.52v-481.28c0-42.24 47.36-67.84 83.2-43.52l346.88 240.64c29.44 21.76 29.44 66.56 0 87.04zM746.24 110.08000000000004c-21.76 0-38.4 16.64-38.4 38.4v512c0 21.76 16.64 38.4 38.4 38.4s38.4-16.64 38.4-38.4v-512c0-20.48-16.64-38.4-38.4-38.4z"  horiz-adv-x="1024" />

    
    <glyph glyph-name="-prev" unicode="&#59052;" d="M381.44 318.72l346.88-240.64c34.56-24.32 83.2 1.28 83.2 43.52V602.88c0 42.24-47.36 67.84-83.2 43.52L381.44 405.76c-30.72-20.48-30.72-65.28 0-87.04zM320 67.84000000000003c-21.76 0-38.4 16.64-38.4 38.4v512c0 21.76 16.64 38.4 38.4 38.4s38.4-16.64 38.4-38.4v-512c0-20.48-16.64-38.4-38.4-38.4z"  horiz-adv-x="1024" />

    
    <glyph glyph-name="-stop-2" unicode="&#59053;" d="M119.04 352c-6.4 0-14.08 2.56-20.48 5.12-11.52 6.4-17.92 19.2-17.92 33.28 0 241.92 197.12 439.04 439.04 439.04 186.88 0 354.56-119.04 416-295.68 6.4-20.48-3.84-42.24-24.32-48.64-20.48-6.4-42.24 3.84-48.64 24.32-49.92 145.92-188.16 244.48-343.04 244.48-177.92 0-326.4-128-357.12-298.24l38.4 19.2c19.2 8.96 42.24 1.28 51.2-16.64 8.96-19.2 1.28-42.24-16.64-51.2l-99.84-49.92c-5.12-3.84-10.24-5.12-16.64-5.12zM517.12-61.440000000000055c-185.6 0-352 117.76-414.72 293.12-7.68 20.48 3.84 42.24 23.04 48.64 20.48 7.68 42.24-3.84 48.64-23.04 51.2-144.64 188.16-241.92 341.76-241.92 177.92 0 326.4 128 357.12 298.24l-38.4-19.2c-19.2-8.96-42.24-1.28-51.2 16.64-8.96 19.2-1.28 42.24 16.64 51.2l99.84 49.92c11.52 6.4 25.6 5.12 37.12-1.28 11.52-6.4 17.92-19.2 17.92-33.28 1.28-241.92-195.84-439.04-437.76-439.04zM650.24 441.6H386.56c-21.76 0-38.4 16.64-38.4 38.4s16.64 38.4 38.4 38.4h264.96c21.76 0 38.4-16.64 38.4-38.4s-17.92-38.4-39.68-38.4zM650.24 249.60000000000002H386.56c-21.76 0-38.4 16.64-38.4 38.4s16.64 38.4 38.4 38.4h264.96c21.76 0 38.4-16.64 38.4-38.4s-17.92-38.4-39.68-38.4z"  horiz-adv-x="1024" />

    
    <glyph glyph-name="-play-2" unicode="&#59054;" d="M512-38.39999999999998C279.04-38.39999999999998 89.6 151.03999999999996 89.6 384S279.04 806.4 512 806.4s422.4-189.44 422.4-422.4-189.44-422.4-422.4-422.4z m0 768c-190.72 0-345.6-154.88-345.6-345.6s154.88-345.6 345.6-345.6 345.6 154.88 345.6 345.6-154.88 345.6-345.6 345.6zM632.32 414.72l-147.2 111.36c-20.48 15.36-49.92 1.28-49.92-24.32v-221.44c0-25.6 29.44-40.96 49.92-24.32l147.2 111.36c16.64 10.24 16.64 34.56 0 47.36z"  horiz-adv-x="1024" />

    
    <glyph glyph-name="-like-2" unicode="&#59055;" d="M968.96 495.36c0 5.12 0 10.24-1.28 14.08v3.84 6.4c0 2.56-1.28 3.84-1.28 7.68v1.28c-1.28 5.12-1.28 11.52-2.56 16.64 0 1.28-1.28 2.56-1.28 3.84-2.56 7.68-3.84 14.08-6.4 20.48 0 1.28-1.28 2.56-1.28 3.84-2.56 5.12-5.12 12.8-7.68 19.2-14.08 30.72-34.56 57.6-61.44 80.64-5.12 3.84-10.24 8.96-16.64 14.08l-3.84 2.56c-6.4 3.84-12.8 7.68-17.92 11.52-1.28 0-1.28 1.28-1.28 1.28-6.4 3.84-11.52 6.4-17.92 8.96l-3.84 1.28-19.2 7.68h-2.56c-6.4 2.56-12.8 3.84-19.2 5.12l-2.56 1.28c-6.4 1.28-12.8 2.56-20.48 3.84h-3.84c-5.12 1.28-10.24 1.28-16.64 1.28h-34.56c-2.56 0-6.4 0-8.96-1.28-3.84 0-7.68-1.28-11.52-1.28h-7.68c-8.96-1.28-16.64-3.84-24.32-5.12l-2.56-1.28h-1.28c-24.32-7.68-46.08-17.92-66.56-30.72-20.48 14.08-43.52 24.32-66.56 30.72h-1.28H510.72c-7.68 2.56-16.64 3.84-25.6 6.4h-3.84c-3.84 0-7.68 1.28-11.52 1.28-2.56 0-6.4 0-8.96 1.28h-34.56c-5.12 0-10.24-1.28-16.64-1.28h-3.84c-6.4-1.28-14.08-2.56-20.48-3.84l-3.84-1.28c-6.4-1.28-12.8-3.84-17.92-5.12 0 0-1.28 0-2.56-1.28l-19.2-7.68-3.84-1.28c-5.12-2.56-11.52-5.12-16.64-8.96 0 0-1.28-1.28-2.56-1.28-6.4-3.84-11.52-7.68-17.92-11.52-1.28-1.28-2.56-2.56-3.84-2.56-6.4-5.12-11.52-8.96-16.64-14.08-25.6-23.04-46.08-49.92-61.44-80.64-3.84-7.68-6.4-14.08-7.68-19.2 0-1.28-1.28-2.56-1.28-3.84-2.56-6.4-3.84-12.8-6.4-20.48 0-1.28-1.28-2.56-1.28-3.84-1.28-5.12-2.56-10.24-2.56-15.36v-2.56c0-2.56-1.28-3.84-1.28-6.4s0-5.12-1.28-6.4v-3.84c0-5.12-1.28-10.24-1.28-15.36v-3.84c-1.28-65.28 24.32-129.28 69.12-176.64l3.84-3.84 222.72-222.72c24.32-24.32 56.32-37.12 90.88-37.12s66.56 12.8 90.88 37.12L896 311.03999999999996l3.84 3.84c44.8 47.36 70.4 111.36 69.12 176.64v3.84z"  horiz-adv-x="1024" />

    
    <glyph glyph-name="-play-triangle-3" unicode="&#59050;" d="M943.36 423.68L433.92 776.96c-49.92 34.56-117.76-1.28-117.76-61.44v-706.56c0-60.16 67.84-96 117.76-61.44l509.44 353.28c42.24 29.44 42.24 93.44 0 122.88z"  horiz-adv-x="1024" />

    
    <glyph glyph-name="-like-1" unicode="&#59056;" d="M481.28 49.91999999999996c-34.56 0-66.56 12.8-90.88 37.12L166.4 311.03999999999996l-3.84 3.84c-44.8 47.36-70.4 111.36-69.12 176.64v3.84c0 5.12 0 8.96 1.28 14.08v3.84 6.4c0 2.56 1.28 3.84 1.28 6.4v2.56c1.28 5.12 1.28 11.52 2.56 16.64 0 1.28 1.28 2.56 1.28 3.84 2.56 7.68 3.84 14.08 6.4 20.48 0 1.28 1.28 2.56 1.28 3.84 1.28 5.12 3.84 11.52 7.68 19.2 14.08 30.72 34.56 57.6 61.44 80.64 5.12 3.84 10.24 8.96 16.64 14.08l3.84 2.56c6.4 3.84 11.52 7.68 17.92 11.52 0 0 1.28 1.28 2.56 1.28 6.4 3.84 11.52 6.4 16.64 8.96l3.84 1.28 19.2 7.68s1.28 0 2.56 1.28c6.4 2.56 12.8 3.84 17.92 5.12l3.84 1.28 19.2 3.84h3.84c6.4 1.28 11.52 1.28 16.64 1.28h34.56c3.84 0 6.4 0 8.96-1.28 3.84 0 7.68-1.28 11.52-1.28h3.84c8.96-1.28 17.92-3.84 25.6-6.4h5.12c24.32-7.68 46.08-17.92 66.56-30.72 20.48 14.08 43.52 24.32 66.56 30.72H547.84c7.68 2.56 16.64 3.84 24.32 5.12 2.56 0 3.84 0 5.12 1.28 3.84 0 7.68 1.28 11.52 1.28 2.56 0 6.4 0 8.96 1.28h34.56c5.12 0 11.52-1.28 16.64-1.28h3.84c6.4-1.28 14.08-2.56 20.48-3.84l2.56-1.28c7.68-1.28 14.08-3.84 19.2-5.12l2.56-1.28 19.2-7.68 3.84-1.28c6.4-2.56 12.8-6.4 17.92-8.96 0 0 1.28 0 1.28-1.28 5.12-2.56 11.52-6.4 17.92-11.52 1.28-1.28 2.56-1.28 3.84-2.56 6.4-5.12 11.52-8.96 16.64-12.8 25.6-23.04 46.08-49.92 61.44-80.64 3.84-6.4 6.4-14.08 7.68-19.2 0-1.28 1.28-2.56 1.28-3.84 2.56-6.4 3.84-12.8 6.4-21.76 0 0 0-1.28 1.28-2.56 1.28-5.12 2.56-10.24 2.56-16.64v-2.56c0-2.56 1.28-3.84 1.28-6.4s0-5.12 1.28-7.68v-3.84c0-5.12 1.28-10.24 1.28-15.36v-3.84c1.28-65.28-24.32-129.28-69.12-176.64l-3.84-3.84-217.6-221.44c-24.32-24.32-56.32-38.4-90.88-38.4zM171.52 492.8v-2.56c-1.28-44.8 16.64-89.6 47.36-121.6 1.28-1.28 1.28-2.56 2.56-2.56l222.72-222.72c19.2-19.2 53.76-19.2 72.96 0l222.72 222.72 2.56 2.56c32 33.28 48.64 76.8 47.36 122.88v2.56c0 2.56 0 6.4-1.28 8.96v2.56 5.12c0 2.56-1.28 3.84-1.28 5.12v1.28c0 3.84-1.28 6.4-1.28 10.24 0 1.28 0 2.56-1.28 2.56-1.28 5.12-2.56 8.96-3.84 14.08 0 1.28-1.28 2.56-1.28 3.84-1.28 3.84-3.84 8.96-5.12 12.8-10.24 21.76-24.32 39.68-42.24 56.32-3.84 3.84-7.68 6.4-11.52 8.96l-2.56 1.28c-3.84 2.56-7.68 5.12-12.8 7.68 0 0-1.28 0-1.28 1.28-3.84 1.28-7.68 3.84-11.52 6.4l-2.56 1.28c-3.84 2.56-8.96 3.84-12.8 5.12h-1.28c-3.84 1.28-7.68 2.56-12.8 3.84h-1.28-1.28c-5.12 1.28-8.96 2.56-14.08 2.56h-2.56c-3.84 0-7.68 1.28-11.52 1.28H601.6c-2.56 0-5.12-1.28-7.68-1.28h-3.84c-6.4-1.28-11.52-2.56-17.92-3.84h-1.28c-25.6-7.68-46.08-19.2-65.28-35.84-14.08-11.52-35.84-11.52-49.92 0-19.2 16.64-40.96 28.16-65.28 35.84h-1.28-1.28c-6.4 1.28-11.52 2.56-17.92 3.84h-2.56c-3.84 1.28-6.4 1.28-8.96 1.28h-30.72c-3.84 0-7.68 0-11.52-1.28h-2.56c-5.12-1.28-8.96-1.28-14.08-2.56h-1.28-1.28c-3.84-1.28-8.96-2.56-12.8-3.84h-1.28c-3.84-1.28-8.96-2.56-12.8-5.12l-1.28-2.56c-3.84-2.56-7.68-3.84-12.8-6.4 0 0-1.28 0-1.28-1.28l-11.52-7.68-2.56-2.56c-3.84-2.56-7.68-6.4-11.52-8.96-17.92-15.36-32-34.56-42.24-55.04-2.56-3.84-3.84-8.96-5.12-12.8 0-1.28-1.28-2.56-1.28-3.84-1.28-3.84-2.56-7.68-3.84-14.08 0 0 0-2.56-1.28-2.56-1.28-2.56-1.28-6.4-1.28-10.24v-1.28c0-1.28 0-2.56-1.28-3.84v-8.96c-1.28-2.56-1.28-5.12-1.28-8.96z m627.2-177.92z m-7.68 177.92z m-230.4 193.28z"  horiz-adv-x="1024" />

    
    <glyph glyph-name="-ci" unicode="&#59175;" d="M512 834c248.52499981 0 450-201.4750002 450-450s-201.4750002-450-450-450S62 135.47500018999995 62 384 263.47500019 834 512 834z m0-56.25C294.54999981 777.75 118.25 601.4500001900001 118.25 384S294.54999981-9.75 512-9.75 905.75 166.54999981000003 905.75 384 729.45000019 777.75 512 777.75z m231.00000029-161.4499998V195c0-25.85000039-6.05000039-38.49999961-22.55000009-45.1000002-17.6000001-7.1499999-46.7499999-7.7000001-91.29999991-7.70000009-2.1999999 11.00000039-8.25000029 30.25000019-13.75000048 40.70000039 33.54999961-1.64999971 65.99999971-1.10000039 75.90000058-0.5500002 9.3499998 0 12.6500001 3.30000029 12.64999922 12.6500001V578.3499999000001h-263.99999971V616.30000019H743.00000029z m-358.5999999-144.1000002v-231.54999961l56.6499999 39.6c2.7500001-11.00000039 8.79999961-26.39999971 12.09999991-34.10000068-86.9500002-64.95000029-104.07499981-77.5249998-112.62499981-88.07499932l-1.2250002-1.575c-4.39999981 8.25000029-15.95000039 21.9999999-23.10000029 28.04999941 10.45000019 8.25000029 29.7 28.59999961 29.7 56.10000059v192.4999998H264.5v39.04999981h119.90000039z m253.54999951-38.49999961v-174.90000058H512v-36.84999991h-36.8499999v211.75000049h162.7999998z m-36.8499999-35.20000019H512v-103.95h89.1V398.50000019z m63.24999961 125.3999997v-35.20000019h-210.64999922v35.20000019h210.64999922zM323.9 626.75000039c29.1499998-24.75 66.5499999-58.84999981 84.15-81.40000078l-27.5000001-28.59999961c-16.49999971 23.10000029-53.34999961 59.4-83.04999961 84.7000002z"  horiz-adv-x="1024" />

    
    <glyph glyph-name="-play-triangle" unicode="&#58986;" d="M218.61506595-91.55629758999999c-59.22186773 0-99.47627733 47.58182827-99.47627733 118.38806826l0 716.20518614c0 70.80624 40.2544096 118.386976 99.50465707 118.386976 22.64481067 0 46.5416032-7.02943147 70.5300832-20.8765376L852.94047502 481.79425281c41.66902827-24.0310496 65.27547413-58.68483627 65.27547413-96.93083734 0-38.20343147-23.47982933-72.81464853-66.15306133-97.45367893L290.19192355-70.04230718999997C265.12828942-84.53996372999995 241.25987662-91.55629758999999 218.61506595-91.55629758999999zM218.64344569 803.48897494c-37.11408747 0-41.5696992-42.27700907-41.5696992-60.45201813l0-716.20518614c0-18.17610133 4.45561173-60.45310933 41.54131946-60.45310933 12.16397227 0 26.69655787 4.5254688 41.56314987 13.1125088l561.7727264 357.45204373c24.70997973 14.30009067 38.3289568 31.5265632 38.3289568 47.9202016 0 16.436208-13.57749973 33.70525013-37.29855573 47.39736L259.11616035 791.01391787C245.32690489 798.94931627 230.82160782 803.48897494 218.64344569 803.48897494zM506.88956633 206.29887034c-4.52199 0-8.924253 2.240017-11.510148 6.351662-3.990894 6.338359-2.081405 14.719236 4.25593 18.723434l7.333012 4.615111c6.351662 3.978614 14.731516 2.094708 18.723434-4.270257 4.00522-6.337335 2.095731-14.718213-4.25593-18.72241l-7.333012-4.616134C511.86181133 206.97629933999997 509.35573433 206.29887034 506.88956633 206.29887034zM307.97316733 81.18945534c-4.520967 0-8.924253 2.240017-11.510148 6.351662-3.990894 6.337335-2.081405 14.731516 4.269233 18.72241l152.386666 95.859231c6.338359 3.964288 14.719236 2.094708 18.723434-4.270257 3.990894-6.337335 2.082428-14.731516-4.269233-18.723434l-152.386666-95.858208C312.94541233 81.86483734000001 310.43933533 81.18945534 307.97316733 81.18945534z"  horiz-adv-x="1024" />

    
    <glyph glyph-name="-play-triangle-2" unicode="&#58894;" d="M838.22989854 433.54944562l0.02302407 0.02302407L239.43172386 844.19326875l-0.18707344-0.17652C226.83738261 855.79852031 210.00559479 863.049285 191.45465229 863.049285c-38.16004781 0-69.093315-30.62723438-69.09331499-68.43424125 0-20.76416156-0.89507344-61.41851812 0-60.53687625l0-350.08392281 0-368.50439438c0-0.30507281 0-23.67099094 0-42.12695812 0-37.78398281 30.93326719-68.41217625 69.093315-68.41217625 18.62097469 0 35.52375469 7.29777188 47.93006343 19.18699125l0.04700813-0.02398406 598.8211997 410.6083275-0.02302408 0.03645562c13.01837344 12.44084531 21.14022656 29.89621031 21.14022657 49.24821 0 0.04700812 0 0.08250375 0 0.14102438 0 0.04700812 0 0.10456875 0 0.14006531C859.37012604 403.64172281 851.24827198 421.10955938 838.22989854 433.54944562z"  horiz-adv-x="1024" />

    
    <glyph glyph-name="-more-1" unicode="&#58932;" d="M512 640C547.346224 640 576 668.653776 576 704 576 739.346224 547.346224 768 512 768 476.653776 768 448 739.346224 448 704 448 668.653776 476.653776 640 512 640ZM512 320C547.346224 320 576 348.653776 576 384 576 419.346224 547.346224 448 512 448 476.653776 448 448 419.346224 448 384 448 348.653776 476.653776 320 512 320ZM512 0C547.346224 0 576 28.653778999999986 576 64 576 99.34622100000001 547.346224 128 512 128 476.653776 128 448 99.34622100000001 448 64 448 28.653778999999986 476.653776 0 512 0Z"  horiz-adv-x="1024" />

    
    <glyph glyph-name="-menu" unicode="&#58965;" d="M192.037 608.047h640.124c17.673 0 32 14.327 32 32s-14.327 32-32 32H192.037c-17.673 0-32-14.327-32-32s14.327-32 32-32z m-0.009-255.217h638.608c17.673 0 32 14.327 32 32s-14.327 32-32 32H192.028c-17.673 0-32-14.327-32-32s14.327-32 32-32z m640.133-192.632H192.037c-17.673 0-32-14.327-32-32s14.327-32 32-32h640.124c17.673 0 32 14.327 32 32s-14.327 32-32 32z"  horiz-adv-x="1024" />

    
    <glyph glyph-name="-music" unicode="&#58946;" d="M254.7712 243.30240000000003c-90.5216 0-163.84-64.1024-163.84-143.36s73.3184-143.36 163.84-143.36 163.84 64.1024 163.84 143.36-73.3184 143.36-163.84 143.36z m0-245.76c-67.7888 0-122.88 45.8752-122.88 102.4s55.0912 102.4 122.88 102.4 122.88-45.8752 122.88-102.4-55.0912-102.4-122.88-102.4zM766.7712 366.18240000000003c-90.5216 0-163.84-64.1024-163.84-143.36s73.3184-143.36 163.84-143.36 163.84 64.1024 163.84 143.36-73.3184 143.36-163.84 143.36z m0-245.76c-67.7888 0-122.88 45.8752-122.88 102.4s55.0912 102.4 122.88 102.4 122.88-45.8752 122.88-102.4-55.0912-102.4-122.88-102.4zM398.1312 673.3824a20.48 20.48 0 0 0 20.48-20.48v-532.48a20.48 20.48 0 0 0-40.96 0v532.48a20.48 20.48 0 0 0 20.48 20.48zM912.5888 811.008a20.48 20.48 0 0 0 20.48-20.48v-573.44a20.48 20.48 0 0 0-40.96 0v573.44a20.48 20.48 0 0 0 20.48 20.48zM392.8064 672.768l514.2528 137.8304a20.48 20.48 0 0 0 10.6496-39.5264L403.456 633.2416000000001a20.48 20.48 0 0 0-10.6496 39.5264zM500.5312 496.8448l-107.7248-28.8768a20.48 20.48 0 0 1 10.6496-39.5264l97.0752 26.0096zM932.2496 591.4624a20.48 20.48 0 0 1-24.9856 14.5408L541.4912 506.88v-40.96l376.2176 100.352a20.48 20.48 0 0 1 14.5408 25.1904z"  horiz-adv-x="1024" />

    
    <glyph glyph-name="-boutique" unicode="&#58947;" d="M512 834.56a20.48 20.48 0 0 0 20.48-20.48v-81.92a20.48 20.48 0 0 0-40.96 0V814.08a20.48 20.48 0 0 0 20.48 20.48zM266.24 363.52l163.84 266.24h40.96l-163.84-266.24zM757.76 363.52l-163.84 266.24h-40.96l163.84-266.24zM757.76 384L531.2512-46.08000000000004l-26.4192 12.0832L724.992 388.9152zM266.24 384l239.2064-430.08 27.0336 12.0832L305.9712 390.144zM122.88 404.48h778.24a20.48 20.48 0 1 0 0-40.96H122.88a20.48 20.48 0 0 0 0 40.96zM778.24 650.24H245.76L61.44 384l82.7392-82.7392 20.48 20.48L102.4 384l163.84 225.28h491.52l163.84-225.28-409.6-409.6L193.7408 292.65920000000006l-20.48-20.48L512-66.55999999999995l450.56 450.56-184.32 266.24zM747.52 820.6336A20.48 20.48 0 0 0 755.0976 793.6l-40.96-70.8608a20.48 20.48 0 1 0-35.4304 20.48l40.96 70.8608a20.48 20.48 0 0 0 27.8528 6.5536zM276.48 811.8272a18.0224 18.0224 0 0 1-7.5776-25.8048l40.96-65.3312a20.48 20.48 0 0 1 28.0576-6.9632 18.0224 18.0224 0 0 1 7.5776 25.8048l-40.96 65.3312a20.48 20.48 0 0 1-28.0576 6.9632z"  horiz-adv-x="1024" />

    
    <glyph glyph-name="-recommend" unicode="&#58948;" d="M525.312 486.4c-78.0288 13.7216-150.7328-29.2864-162.6112-96.0512s40.96-132.096 119.808-145.8176 150.7328 29.2864 162.6112 96.0512-41.7792 132.7104-119.808 145.8176z m79.4624-138.8544c-7.7824-44.6464-59.392-72.704-115.0976-62.8736S395.264 339.14880000000005 403.2512 384s59.392 72.704 115.0976 62.8736 94.4128-54.0672 86.4256-98.7136zM901.12 514.048a413.9008 413.9008 0 1 0-327.68 274.432 266.24 266.24 0 0 0 5.3248 40.96A450.56 450.56 0 1 1 939.4176 527.36a264.192 264.192 0 0 0-38.2976-13.312zM703.2832 788.48a20.48 20.48 0 0 0 16.5888-23.7568l-71.0656-403.456a20.48 20.48 0 1 0-40.96 7.168l71.0656 403.456a20.48 20.48 0 0 0 24.3712 16.5888zM297.3696 265.01120000000003A163.84 163.84 0 0 0 286.72 322.55999999999995c0 6.7584-40.96 5.12-40.96 0a204.8 204.8 0 0 1 15.5648-78.2336zM450.56 158.72000000000003a163.84 163.84 0 0 0-134.144 70.0416l-35.6352-20.48A204.8 204.8 0 0 1 450.56 117.75999999999999c6.5536 0 3.8912 40.96 0 40.96zM920.1664 581.4272000000001a287.9488 287.9488 0 0 1-42.1888 3.8912 245.76 245.76 0 0 1-189.0304 160.768 286.72 286.72 0 0 1 3.8912 40.96h3.2768a286.72 286.72 0 0 0 225.28-204.8z"  horiz-adv-x="1024" />

    
    <glyph glyph-name="-beckoning" unicode="&#58949;" d="M291.84 453.632h-245.76a20.48 20.48 0 1 1 0-40.96h245.76zM680.96 439.296h-163.84v-40.96h163.84a20.48 20.48 0 1 1 0 40.96zM404.48 568.3199999999999a20.48 20.48 0 0 0 20.48-20.48v-245.76a20.48 20.48 0 0 0-40.96 0V547.8399999999999a20.48 20.48 0 0 0 20.48 20.48zM534.7328 432.5376a20.48 20.48 0 0 0 0-28.8768l-115.9168-115.9168A20.48 20.48 0 0 0 389.12 316.62080000000003l115.9168 115.9168a20.48 20.48 0 0 0 29.696 0zM419.0208 562.3808a20.48 20.48 0 0 0 0-28.8768l-115.9168-115.9168a20.48 20.48 0 0 0-28.8768 28.8768L389.12 562.3808a20.48 20.48 0 0 0 29.9008 0zM239.2064 359.62879999999996l-28.0576-28.0576c9.6256-12.9024 20.48-25.6 30.1056-38.0928l27.8528 27.8528c-10.24 12.6976-20.2752 25.3952-29.9008 38.2976zM894.5664 740.5568000000001c-209.5104 110.3872-348.16-96.256-348.16-96.256S409.6 851.1488 200.704 740.5568000000001c-116.1216-61.44-122.88-159.3344-76.8-264.6016l35.2256 35.2256c-20.48 76.3904-2.4576 146.0224 87.6544 193.1264 163.84 86.4256 301.056-115.5072 301.056-115.5072s120.832 208.896 310.4768 109.7728C1170.432 538.624 547.84 56.32000000000005 547.84 56.32000000000005a1950.3104 1950.3104 0 0 0-251.904 233.6768l-27.8528-27.8528A2303.3856 2303.3856 0 0 1 550.7072-5.1200000000000045S1257.8816 549.0688 894.5664 740.5568000000001z"  horiz-adv-x="1024" />

    
    <glyph glyph-name="-schools" unicode="&#58950;" d="M899.8912 322.55999999999995H651.6736a81.92 81.92 0 0 1-81.92-81.92v-245.76a81.92 81.92 0 0 1 81.92-81.92h248.2176a81.92 81.92 0 0 1 81.92 81.92V240.64a81.92 81.92 0 0 1-81.92 81.92z m40.96-327.68a40.96 40.96 0 0 0-40.96-40.96H651.8784a40.96 40.96 0 0 0-40.96 40.96V240.64a40.96 40.96 0 0 0 40.96 40.96h248.2176a40.96 40.96 0 0 0 40.96-40.96zM368.64 322.55999999999995H122.88a81.92 81.92 0 0 1-81.92-81.92v-245.76a81.92 81.92 0 0 1 81.92-81.92h245.76a81.92 81.92 0 0 1 81.92 81.92V240.64a81.92 81.92 0 0 1-81.92 81.92z m40.96-327.68a40.96 40.96 0 0 0-40.96-40.96H122.88a40.96 40.96 0 0 0-40.96 40.96V240.64a40.96 40.96 0 0 0 40.96 40.96h245.76a40.96 40.96 0 0 0 40.96-40.96zM959.6928 686.8992000000001l-144.7936 144.7936a81.92 81.92 0 0 1-115.9168 0l-144.7936-144.7936a81.92 81.92 0 0 1 0-115.9168l144.7936-144.7936a81.92 81.92 0 0 1 115.9168 0l144.7936 144.7936a81.92 81.92 0 0 1 0 115.9168z m-28.4672-86.2208l-144.7936-144.7936a40.96 40.96 0 0 0-57.9584 0l-144.7936 144.7936a40.96 40.96 0 0 0 0 57.9584l144.7936 144.7936a40.96 40.96 0 0 0 57.9584 0l144.7936-144.7936a40.96 40.96 0 0 0 0.2048-57.9584zM409.6 691.2v-204.8a40.96 40.96 0 0 0-40.96-40.96H122.88a40.96 40.96 0 0 0-40.96 40.96V732.16a40.96 40.96 0 0 0 40.96 40.96h245.76a40.96 40.96 0 0 0 40.96-40.96h40.96a81.92 81.92 0 0 1-81.92 81.92H122.88a81.92 81.92 0 0 1-81.92-81.92v-245.76a81.92 81.92 0 0 1 81.92-81.92h245.76a81.92 81.92 0 0 1 81.92 81.92V691.2z"  horiz-adv-x="1024" />

    
    <glyph glyph-name="-play" unicode="&#58951;" d="M512 855.04a471.04 471.04 0 1 1 471.04-471.04A471.04 471.04 0 0 1 512 855.04z m0-901.12a430.08 430.08 0 1 0 430.08 430.08 430.08 430.08 0 0 0-430.08-430.08zM555.8272 331.3664L450.56 261.12V506.88l184.32-122.88-42.5984-28.4672 32.1536-22.9376L696.32 384 409.6 588.8v-409.6l179.6096 128.4096-33.3824 23.7568z"  horiz-adv-x="1024" />

    
    <glyph glyph-name="-lower" unicode="&#58952;" d="M40.96 384A471.04 471.04 0 1 1 512 855.04 471.04 471.04 0 0 1 40.96 384z m40.96 0a430.08 430.08 0 1 0 430.08-430.08A430.08 430.08 0 0 0 81.92 384zM593.92 506.88h40.96v-327.68h-40.96zM593.92 588.8h40.96v-40.96h-40.96zM327.68 588.8v-409.6l286.72 204.8z m40.96-327.68V506.88l184.32-122.88z"  horiz-adv-x="1024" />

    
    <glyph glyph-name="-upper" unicode="&#58953;" d="M512 855.04a471.04 471.04 0 1 1 471.04-471.04A471.04 471.04 0 0 1 512 855.04z m0-901.12a430.08 430.08 0 1 0 430.08 430.08 430.08 430.08 0 0 0-430.08-430.08zM389.12 506.88h40.96v-327.68h-40.96zM389.12 588.8h40.96v-40.96h-40.96zM409.6 384l286.72-204.8V588.8z m61.44 0l184.32 122.88v-245.76z"  horiz-adv-x="1024" />

    
    <glyph glyph-name="-stop" unicode="&#58954;" d="M512 855.04a471.04 471.04 0 1 1 471.04-471.04A471.04 471.04 0 0 1 512 855.04z m0-901.12a430.08 430.08 0 1 0 430.08 430.08 430.08 430.08 0 0 0-430.08-430.08zM593.92 588.8h40.96v-409.6h-40.96zM389.12 506.88h40.96v-327.68h-40.96zM389.12 588.8h40.96v-40.96h-40.96z"  horiz-adv-x="1024" />

    
    <glyph glyph-name="-singles" unicode="&#58955;" d="M81.92 343.03999999999996a245.76 245.76 0 0 0 245.76 245.76h122.88v40.96h-122.88a286.72 286.72 0 1 1 0-573.44h61.44v40.96h-61.44A245.76 245.76 0 0 0 81.92 343.03999999999996zM614.4 629.76v-40.96a245.76 245.76 0 0 0 20.48-490.496v-40.96A286.72 286.72 0 0 1 614.4 629.76zM430.08 97.27999999999997h163.84v-40.96h-163.84zM512 629.76h61.44v-40.96h-61.44zM491.52 302.08000000000004h40.96v-245.76h-40.96zM450.56 302.08000000000004h40.96v-40.96h-40.96zM433.9712 594.7392l-86.8352 86.8352a20.48 20.48 0 0 0 28.8768 28.8768l86.8352-86.8352a20.48 20.48 0 0 0-28.8768-28.8768z"  horiz-adv-x="1024" />

    
    <glyph glyph-name="-loop" unicode="&#58956;" d="M552.96 627.3024h61.44v-40.96h-61.44zM655.36 627.3024v-40.96a245.76 245.76 0 0 0 0-491.52H368.64a245.76 245.76 0 0 0 0 491.52h122.88v40.96h-122.88a286.72 286.72 0 0 1 0-573.44h286.72a286.72 286.72 0 0 1 0 573.44zM474.9312 592.2816l-86.8352 86.8352a20.48 20.48 0 1 0 28.8768 28.8768l86.8352-86.8352a20.48 20.48 0 0 0-28.8768-28.8768zM409.6 483.9424h286.72a20.48 20.48 0 0 0 0-40.96H409.6a20.48 20.48 0 0 0 0 40.96zM409.6 340.5824h286.72a20.48 20.48 0 0 0 0-40.96H409.6a20.48 20.48 0 0 0 0 40.96zM409.6 217.7024h286.72a20.48 20.48 0 1 0 0-40.96H409.6a20.48 20.48 0 0 0 0 40.96zM327.68 483.9424a20.48 20.48 0 1 0-20.48-20.48 20.48 20.48 0 0 0 20.48 20.48zM327.68 340.5824a20.48 20.48 0 1 0-20.48-20.48 20.48 20.48 0 0 0 20.48 20.48zM327.68 217.7024a20.48 20.48 0 1 0-20.48-20.48 20.48 20.48 0 0 0 20.48 20.48z"  horiz-adv-x="1024" />

    
    <glyph glyph-name="-search" unicode="&#58957;" d="M675.84 697.9584a348.16 348.16 0 1 1 0-491.52 348.16 348.16 0 0 1 0 491.52z m-28.8768-463.2576a307.2 307.2 0 1 0 0 434.3808 307.2 307.2 0 0 0 0-434.3808zM675.84 234.70079999999996a20.48 20.48 0 0 0 28.8768 0l231.8336-231.8336A20.48 20.48 0 1 0 907.4688-25.600000000000023L675.84 205.61919999999998a20.48 20.48 0 0 0 0 29.0816zM574.464 596.5824zM574.464 306.99519999999995v0.2048-0.2048zM266.24 460.3904h-40.96a206.6432 206.6432 0 0 1 5.9392-59.392l39.5264 10.6496a165.2736 165.2736 0 0 0-4.5056 48.7424zM284.8768 596.5824a202.3424 202.3424 0 0 1-53.6576-95.4368h42.5984a162.2016 162.2016 0 0 0 193.3312 109.568l10.6496 39.5264a204.8 204.8 0 0 1-192.9216-53.6576z"  horiz-adv-x="1024" />

    
    <glyph glyph-name="-random" unicode="&#58958;" d="M747.52 586.5472a245.76 245.76 0 0 1-245.76-245.76v-14.7456c-15.7696-38.912-17.408-56.7296-29.2864-68.1984a286.72 286.72 0 0 0-257.4336-162.816h-20.48v40.96h20.48a245.76 245.76 0 0 1 239.2064 190.2592c2.4576 3.6864 4.5056 7.5776 6.7584 11.264s0 2.048 0 3.2768a286.72 286.72 0 0 0 286.72 286.72h61.44v-40.96zM794.4192 174.4896l-87.04-86.2208a20.48 20.48 0 0 1 0-28.672 20.48 20.48 0 0 1 29.0816 0l87.04 86.2208a20.48 20.48 0 0 1 0 28.672 20.48 20.48 0 0 1-29.0816 0zM792.576 592.4864l-86.8352 86.8352a20.48 20.48 0 1 0 28.8768 28.8768l86.8352-86.8352a20.48 20.48 0 0 0-28.8768-28.8768zM749.1584 180.42880000000002A245.76 245.76 0 0 0 502.784 424.96v14.7456c-15.7696 38.5024-17.6128 56.32-29.2864 67.7888a286.72 286.72 0 0 1-197.632 155.0336v-40.96a245.76 245.76 0 0 0 178.7904-181.248c2.4576-3.6864 4.5056-7.5776 6.7584-11.264s0-2.048 0-3.072a286.72 286.72 0 0 1 286.72-284.672h61.44v40.96zM235.52 667.648h-40.96v-40.96h40.96z"  horiz-adv-x="1024" />

    
    <glyph glyph-name="-notice" unicode="&#58959;" d="M421.888 47.718399999999974c-10.8544 2.8672-20.48 6.3488-31.5392 10.24a81.92 81.92 0 0 0-53.8624-20.48h-81.92v81.92a81.92 81.92 0 0 0 4.5056 26.0096 348.16 348.16 0 0 0-29.2864 35.0208 122.88 122.88 0 0 1-16.384-61.44v-122.88h122.88a122.88 122.88 0 0 1 97.8944 48.7424c-4.096 1.2288-8.192 1.8432-12.288 2.8672zM390.5536 367.20640000000003a143.36 143.36 0 0 0-11.4688 38.7072h-40.96a182.8864 182.8864 0 0 1 17.2032-59.392zM662.528 406.1184a143.36 143.36 0 0 0-249.856-73.3184l-36.0448-20.48a184.32 184.32 0 0 1 327.68 94.208zM612.7616 759.808a389.12 389.12 0 0 1-398.336-626.2784 122.88 122.88 0 0 0 15.36 45.6704 348.16 348.16 0 1 0 204.8-135.168 122.88 122.88 0 0 0-36.864-32.3584c4.7104-1.4336 9.216-3.2768 13.9264-4.5056a389.12 389.12 0 0 1 201.1136 752.64z"  horiz-adv-x="1024" />

    
    <glyph glyph-name="-user" unicode="&#58960;" d="M159.9488 92.77440000000001a243.3024 243.3024 0 0 1-12.9024-46.6944h40.96a203.1616 203.1616 0 0 0 11.0592 36.2496zM677.0688 246.98879999999997a266.24 266.24 0 1 1-330.1376 0 245.76 245.76 0 0 1-168.96-116.5312l40.96-11.0592A204.8 204.8 0 0 0 389.12 209.91999999999996h40.96v36.0448a225.28 225.28 0 0 0-51.2 28.2624l-2.6624 2.048a225.28 225.28 0 0 0-30.5152 27.8528l-3.8912 4.3008-7.168 8.8064-4.9152 6.5536-5.9392 8.3968q-4.7104 6.9632-8.8064 14.336l-3.6864 6.9632c-1.8432 3.4816-3.4816 7.168-5.12 10.8544l-3.072 7.168a179.2 179.2 0 0 0-4.9152 13.5168l-1.6384 4.7104c-1.8432 6.144-3.4816 12.4928-4.9152 18.8416 0 1.8432 0 3.6864-1.024 5.5296q-1.4336 7.3728-2.2528 15.1552v5.9392c0 6.7584-1.024 13.7216-1.024 20.48a225.28 225.28 0 0 0 202.3424 224.0512 228.7616 228.7616 0 0 0 46.08 0A225.28 225.28 0 0 0 655.36 629.76a225.28 225.28 0 0 0 50.5856-59.392 223.4368 223.4368 0 0 0 30.3104-91.3408A227.9424 227.9424 0 0 0 737.28 455.68c0-6.9632 0-13.7216-1.024-20.48v-5.9392c0-1.8432-1.4336-10.0352-2.2528-14.9504s0-3.8912-1.024-5.7344c-1.4336-6.3488-2.8672-12.6976-4.9152-18.8416l-1.6384-4.7104c-1.4336-4.5056-3.072-9.0112-4.9152-13.5168L716.8 363.52c-1.6384-3.6864-3.2768-7.168-5.12-10.6496l-3.6864-7.168q-4.096-7.3728-8.8064-14.336l-5.9392-8.3968-4.7104-6.3488-7.168-8.8064-3.8912-4.3008a225.28 225.28 0 0 0-30.5152-28.0576l-2.6624-2.048A225.28 225.28 0 0 0 593.92 245.96479999999997v-36.0448h40.96a204.8 204.8 0 0 0 200.704-163.84h40.96a245.76 245.76 0 0 1-199.4752 200.9088z"  horiz-adv-x="1024" />

    
    <glyph glyph-name="-collect-lists" unicode="&#58961;" d="M143.36 404.48h286.72a20.48 20.48 0 0 0 0-40.96H143.36a20.48 20.48 0 0 0 0 40.96zM491.52-5.1200000000000045H122.88a40.96 40.96 0 0 0-40.96 40.96V773.12a40.96 40.96 0 0 0 40.96 40.96h614.4a40.96 40.96 0 0 0 40.96-40.96v-389.12h40.96V773.12a81.92 81.92 0 0 1-81.92 81.92H122.88a81.92 81.92 0 0 1-81.92-81.92v-737.28a81.92 81.92 0 0 1 81.92-81.92h368.64zM163.84 588.8H143.36a20.48 20.48 0 0 1 0-40.96h20.48zM716.8 588.8H204.8v-40.96h512a20.48 20.48 0 0 1 0 40.96zM889.856 321.53599999999994c-105.0624 63.8976-173.2608-57.344-173.2608-57.344s-68.4032 121.0368-173.2608 57.344c-182.0672-110.592 175.104-369.8688 175.104-369.8688s353.4848 259.072 171.4176 369.8688zM716.8 27.443200000000047s-257.4336 180.8384-150.1184 243.0976c81.92 47.9232 149.504-84.7872 149.504-84.7872s44.2368 132.7104 148.6848 86.8352C962.56 212.99199999999996 716.8 27.443200000000047 716.8 27.443200000000047z"  horiz-adv-x="1024" />

    
    <glyph glyph-name="-collect-list" unicode="&#58963;" d="M819.2 436.224l-215.04 28.4672L512 670.72l-92.16-206.2336L204.8 436.224l158.1056-155.8528-40.96-224.0512L512 166.2976 701.6448 56.32000000000005l-40.96 223.8464zM512 218.9312L372.5312 138.24l29.9008 163.84L286.72 416.768l157.696 20.48L512 588.8l67.584-151.3472 157.696-20.48L621.1584 302.08000000000004l29.9008-163.84zM512 834.56A471.04 471.04 0 0 1 144.7936 68.60799999999995L174.08 97.27999999999997a430.08 430.08 0 1 0 92.16-87.04l-29.4912-29.4912A471.04 471.04 0 1 1 512 834.56zM200.9088 66.96960000000001L171.8272 37.888000000000034q15.9744-16.5888 33.3824-31.5392L234.496 35.84000000000003a436.0192 436.0192 0 0 0-33.5872 31.1296z"  horiz-adv-x="1024" />

    
    <glyph glyph-name="-mobile" unicode="&#58964;" d="M696.32 855.04H327.68a122.88 122.88 0 0 1-122.88-122.88v-696.32a122.88 122.88 0 0 1 122.88-122.88h368.64a122.88 122.88 0 0 1 122.88 122.88V732.16a122.88 122.88 0 0 1-122.88 122.88z m81.92-819.2a81.92 81.92 0 0 0-81.92-81.92H327.68a81.92 81.92 0 0 0-81.92 81.92V732.16a81.92 81.92 0 0 0 81.92 81.92h368.64a81.92 81.92 0 0 0 81.92-81.92zM225.28 117.75999999999999h573.44v-40.96H225.28zM471.04 35.84000000000003h81.92v-40.96h-81.92zM225.28 691.2h471.04v-40.96H225.28zM737.28 691.2h61.44v-40.96h-61.44z"  horiz-adv-x="1024" />

    
    <glyph glyph-name="-video" unicode="&#59221;" d="M901.952 605.7919999999999l-219.36-131.904 0 148.96c0 28.256-22.912 51.168-51.168 51.168l-545.92 0c-28.288 0-51.168-22.912-51.168-51.168l0-477.696c0-28.256 22.88-51.168 51.168-51.168l545.92 0c28.256 0 51.168 22.912 51.168 51.168l0 151.808 224.192-134.752 82.912 0 0 443.552-87.744 0zM648.48 145.15200000000004c0-9.408-7.68-17.056-17.056-17.056l-545.92 0c-9.44 0-17.056 7.648-17.056 17.056l0 477.696c0 9.408 7.616 17.056 17.056 17.056l545.92 0c9.408 0 17.056-7.648 17.056-17.056l0-477.696zM955.552 196.35199999999998l-39.328 0-233.632 140.448 0 97.248 228.8 137.6 44.16 0 0-375.328z"  horiz-adv-x="1024" />

    
    <glyph glyph-name="-tag" unicode="&#58897;" d="M537.68192 657.73568c11.34592 11.34592 35.6352 22.48704 51.93728 23.7568l273.53088 21.01248c8.6016 0.65536 13.84448-4.54656 13.18912-13.18912l-21.05344-273.53088c-1.2288-16.13824-12.53376-40.71424-24.04352-52.224l-227.49184-227.49184a20.48 20.48 0 0 1 28.95872-28.95872L860.16 334.60224000000005c18.432 18.432 33.91488 52.14208 35.92192 78.06976l21.05344 273.53088c2.58048 33.71008-23.552 59.71968-57.18016 57.1392l-273.53088-21.05344c-26.0096-1.96608-59.47392-17.32608-77.74208-35.6352a20.48 20.48 0 1 1 28.95872-28.91776z m30.72-557.056l-37.02784-36.98688a20.48 20.48 0 1 1 28.95872-28.95872l36.98688 36.98688a20.48 20.48 0 1 1-28.95872 28.95872z m-86.95808-86.91712a55.7056 55.7056 0 0 0-78.6432 0.45056L188.0064 228.96640000000002a55.82848 55.82848 0 0 0-0.2048 78.92992L376.6272 496.64a20.48 20.48 0 0 1-28.95872 28.95872l-188.78464-188.78464c-37.6832-37.6832-37.60128-99.04128 0.2048-136.8064l214.75328-214.79424a96.6656 96.6656 0 0 1 136.56064-0.45056 20.48 20.48 0 0 1-28.95872 28.95872z m-52.4288 535.3472l108.66688 108.62592a20.48 20.48 0 0 1-28.95872 28.95872L400.09728 578.06848a20.48 20.48 0 1 1 28.95872-28.99968z m173.71136-120.2176a87.04 87.04 0 1 1 123.12576 123.12576 87.04 87.04 0 0 1-123.12576-123.12576z m28.95872 94.208a46.08 46.08 0 1 0 65.20832-65.24928 46.08 46.08 0 0 0-65.20832 65.20832z"  horiz-adv-x="1024" />

    
    <glyph glyph-name="-share" unicode="&#58899;" d="M512 322.55999999999995c0 203.9808 64.18432 266.24 212.5824 266.24h115.38432a20.48 20.48 0 0 1 0 40.96H724.5824c-170.76224 0-253.5424-80.2816-253.5424-307.2a20.48 20.48 0 1 1 40.96 0zM779.71456 541.8598400000001a20.48 20.48 0 0 1 28.95872-28.99968l71.68 71.72096a34.93888 34.93888 0 0 1 0 49.39776l-71.68 71.68a20.48 20.48 0 0 1-28.95872-28.95872L847.13472 609.28l-67.42016-67.42016zM71.59808 248.42240000000004a443.5968 443.5968 0 0 1 140.77952-214.50752 445.11232 445.11232 0 0 1 406.85568-87.73632c28.59008 8.02816 56.36096 18.8416 82.82112 32.3584a20.48 20.48 0 1 1-18.67776 36.49536c-24.00256-12.288-49.19296-22.1184-75.1616-29.40928a404.15232 404.15232 0 0 0-369.50016 79.6672 402.6368 402.6368 0 0 0-127.83616 194.7648 20.48 20.48 0 1 1-39.3216-11.63264z m679.81312-240.39424a442.69568 442.69568 0 0 1 88.80128 80.81408 446.21824 446.21824 0 0 1 88.22784 167.7312c9.05216 32.768 14.29504 66.51904 15.64672 100.51584a20.48 20.48 0 1 1-40.91904 1.6384 404.56192 404.56192 0 0 0-37.51936-154.58304 407.51104 407.51104 0 0 0-137.46176-162.36544 20.48 20.48 0 0 1 23.22432-33.75104zM657.48992 791.83872a444.416 444.416 0 0 1-192.512 27.81184 20.48 20.48 0 1 1 3.11296-40.83712 403.456 403.456 0 0 0 174.81728-25.23136 20.48 20.48 0 0 1 14.58176 38.25664z m-252.47744 19.12832A443.71968 443.71968 0 0 1 157.45024 661.7088a443.5968 443.5968 0 0 1-103.2192-317.27616 20.48 20.48 0 0 1 40.87808 2.82624A402.6368 402.6368 0 0 0 188.8256 635.41248a402.75968 402.75968 0 0 0 224.78848 135.49568 20.48 20.48 0 1 1-8.6016 40.05888z"  horiz-adv-x="1024" />

    
    <glyph glyph-name="-list" unicode="&#58901;" d="M236.1344 609.28H614.4a20.48 20.48 0 1 1 0 40.96H236.1344a20.48 20.48 0 0 1 0-40.96zM696.32 609.28h195.1744a20.48 20.48 0 1 1 0 40.96H696.32a20.48 20.48 0 1 1 0-40.96zM143.36 629.76m-20.48 0a20.48 20.48 0 1 1 40.96 0 20.48 20.48 0 1 1-40.96 0ZM143.36 384m-20.48 0a20.48 20.48 0 1 1 40.96 0 20.48 20.48 0 1 1-40.96 0ZM143.36 138.24m-20.48 0a20.48 20.48 0 1 1 40.96 0 20.48 20.48 0 1 1-40.96 0ZM236.1344 363.52H532.48a20.48 20.48 0 1 1 0 40.96H236.1344a20.48 20.48 0 0 1 0-40.96zM614.4 363.52h277.0944a20.48 20.48 0 1 1 0 40.96H614.4a20.48 20.48 0 1 1 0-40.96zM236.1344 117.75999999999999H737.28a20.48 20.48 0 1 1 0 40.96H236.1344a20.48 20.48 0 1 1 0-40.96zM819.2 117.75999999999999h72.2944a20.48 20.48 0 1 1 0 40.96H819.2a20.48 20.48 0 1 1 0-40.96z"  horiz-adv-x="1024" />

    
    <glyph glyph-name="-comment" unicode="&#58902;" d="M184.32-45.67039999999997c0-39.23968 33.87392-57.01632 65.7408-34.69312l195.25632 136.68352H696.32a20.48 20.48 0 1 1 0 40.96h-257.47456a20.48 20.48 0 0 1-11.71456-3.6864l-200.54016-140.36992C221.88032-50.053120000000035 225.28 76.79999999999995 225.28 76.79999999999995a20.48 20.48 0 0 1-20.48 20.48H122.88a61.44 61.44 0 0 0-61.44 61.56288V650.11712C61.44 684.032 89.12896 711.6800000000001 122.88 711.6800000000001h81.92a20.48 20.48 0 0 1 0 40.96H122.88A102.64576 102.64576 0 0 1 20.48 650.11712v-491.27424A102.4 102.4 0 0 1 122.88 56.32000000000005h61.44v-101.9904zM778.24 56.32000000000005h122.88c56.36096 0 102.4 45.95712 102.4 102.52288V404.48a20.48 20.48 0 1 1-40.96 0v-245.63712c0-33.91488-27.68896-61.56288-61.44-61.56288h-122.88a20.48 20.48 0 1 1 0-40.96zM1003.52 486.4V650.11712A102.4 102.4 0 0 1 901.12 752.64H286.72a20.48 20.48 0 0 1 0-40.96h614.4c33.9968 0 61.44-27.4432 61.44-61.56288V486.4a20.48 20.48 0 1 1 40.96 0zM163.84 506.88h204.8a20.48 20.48 0 0 1 0 40.96H163.84a20.48 20.48 0 0 1 0-40.96z m286.72 0h122.88a20.48 20.48 0 1 1 0 40.96h-122.88a20.48 20.48 0 1 1 0-40.96zM163.84 302.08000000000004h204.8a20.48 20.48 0 1 1 0 40.96H163.84a20.48 20.48 0 1 1 0-40.96z m286.72 0h81.92a20.48 20.48 0 1 1 0 40.96h-81.92a20.48 20.48 0 1 1 0-40.96z"  horiz-adv-x="1024" />

    
    <glyph glyph-name="-delete" unicode="&#58903;" d="M348.16 691.15904V732.20096c0 11.30496 9.13408 20.43904 20.39808 20.43904h286.88384c11.34592 0 20.39808-9.0112 20.39808-20.43904v-41.04192a20.48 20.48 0 1 1 40.96 0V732.20096c0 34.03776-27.4432 61.39904-61.35808 61.39904H368.55808C334.6432 793.6 307.2 766.1158399999999 307.2 732.20096v-41.04192a20.48 20.48 0 0 1 40.96 0zM102.4 609.28h819.2a20.48 20.48 0 1 1 0 40.96h-819.2a20.48 20.48 0 0 1 0-40.96zM793.51808 530.7187200000001L722.37056-3.0720000000000027a27.32032 27.32032 0 0 0-25.88672-22.528H614.4a20.48 20.48 0 1 1 0-40.96h82.08384c32.80896 0 62.13632 25.64096 66.47808 58.08128L834.10944 525.312a20.48 20.48 0 0 1-40.5504 5.40672zM532.48-25.600000000000023H327.51616a27.648 27.648 0 0 0-25.88672 22.528l-23.3472 175.02208a20.48 20.48 0 0 1-40.5504-5.40672l23.3472-175.02208c4.25984-32.19456 33.75104-58.08128 66.43712-58.08128H532.48a20.48 20.48 0 1 1 0 40.96z m-262.18496 257.76128l-39.81312 298.55744a20.48 20.48 0 0 1-40.59136-5.40672l39.77216-298.5984a20.48 20.48 0 0 1 40.63232 5.44768zM368.64 465.92v-122.88a20.48 20.48 0 1 1 40.96 0v122.88a20.48 20.48 0 1 1-40.96 0zM491.52 465.92v-122.88a20.48 20.48 0 1 1 40.96 0v122.88a20.48 20.48 0 1 1-40.96 0zM614.4 465.92v-122.88a20.48 20.48 0 1 1 40.96 0v122.88a20.48 20.48 0 1 1-40.96 0z"  horiz-adv-x="1024" />

    
    <glyph glyph-name="-set" unicode="&#58904;" d="M310.4768 708.28032a89.088 89.088 0 0 1-109.568-13.18912 89.088 89.088 0 0 1-13.18912-109.568 379.86304 379.86304 0 0 1-42.43456-95.19104A89.04704 89.04704 0 0 1 61.44 401.2032c0-44.76928 32.64512-81.63328 75.40736-88.22784a379.4944 379.4944 0 0 1 50.87232-130.49856 89.088 89.088 0 0 1 13.18912-109.568 89.088 89.088 0 0 1 109.568-13.18912c29.57312-18.432 61.60384-32.768 95.19104-42.43456A89.04704 89.04704 0 0 1 494.7968-66.55999999999995a89.04704 89.04704 0 0 1 88.22784 75.40736 379.4944 379.4944 0 0 1 130.49856 50.87232c34.48832-21.17632 79.872-16.54784 109.568 13.18912a89.088 89.088 0 0 1 13.18912 109.568 379.4944 379.4944 0 0 1 50.87232 130.49856A89.04704 89.04704 0 0 1 962.56 401.2032a89.088 89.088 0 0 1-83.80416 89.12896 379.86304 379.86304 0 0 1-42.47552 95.19104 89.088 89.088 0 0 1-13.18912 109.568 89.088 89.088 0 0 1-109.568 13.18912 381.25568 381.25568 0 0 1-25.8048 14.70464 20.48 20.48 0 0 1-18.8416-36.37248c11.6736-6.06208 22.97856-12.77952 33.87392-20.19328a20.48 20.48 0 0 1 25.14944 1.72032 48.128 48.128 0 0 0 66.23232-2.00704c18.2272-18.2272 19.08736-47.104 2.00704-66.23232a20.48 20.48 0 0 1-1.72032-25.14944c22.528-33.30048 39.07584-70.36928 48.66048-109.60896a20.48 20.48 0 0 1 19.8656-15.60576h10.40384c26.74688 0 48.25088-21.46304 48.25088-48.3328 0-26.8288-21.42208-48.3328-48.25088-48.3328h-3.72736a20.48 20.48 0 0 1-20.2752-17.6128 338.65728 338.65728 0 0 0-54.8864-142.00832 20.48 20.48 0 0 1 1.6384-25.14944 48.128 48.128 0 0 0-1.96608-66.23232 48.08704 48.08704 0 0 0-66.23232-2.00704 20.48 20.48 0 0 1-25.14944 1.72032 338.65728 338.65728 0 0 0-142.04928-54.8864 20.48 20.48 0 0 1-17.57184-20.31616v-3.6864a48.04608 48.04608 0 0 0-48.3328-48.29184c-26.8288 0-48.3328 21.42208-48.3328 48.25088v10.40384a20.48 20.48 0 0 1-15.60576 19.8656 338.944 338.944 0 0 0-109.60896 48.66048 20.48 20.48 0 0 1-25.14944-1.72032 48.128 48.128 0 0 0-66.23232 2.00704 48.08704 48.08704 0 0 0-2.00704 66.23232 20.48 20.48 0 0 1 1.72032 25.14944 338.65728 338.65728 0 0 0-54.8864 142.04928 20.48 20.48 0 0 1-20.31616 17.57184h-3.6864A48.128 48.128 0 0 0 102.4 401.2032c0 26.8288 21.42208 48.3328 48.25088 48.3328h10.40384a20.48 20.48 0 0 1 19.8656 15.60576 338.944 338.944 0 0 0 48.66048 109.60896 20.48 20.48 0 0 1-1.72032 25.14944 48.128 48.128 0 0 0 2.00704 66.23232 48.08704 48.08704 0 0 0 66.23232 2.00704 20.48 20.48 0 0 1 25.14944-1.72032 338.944 338.944 0 0 0 109.60896 48.66048 20.48 20.48 0 0 1 15.60576 19.8656v10.40384c0 26.74688 21.46304 48.25088 48.3328 48.25088 26.8288 0 48.3328-21.42208 48.3328-48.25088a20.48 20.48 0 1 1 40.96 0A89.04704 89.04704 0 0 1 494.7968 834.56a89.088 89.088 0 0 1-89.12896-83.80416A379.86304 379.86304 0 0 1 310.4768 708.28032z m253.1328 57.5488a20.48 20.48 0 0 1-20.48-20.48v-3.72736a20.48 20.48 0 0 1 17.6128-20.2752 338.45248 338.45248 0 0 0 62.09536-14.99136 20.48 20.48 0 0 1 13.312 38.74816 379.16672 379.16672 0 0 1-58.32704 14.99136 20.39808 20.39808 0 0 1-14.21312 5.7344zM512 225.89440000000002a157.696 157.696 0 0 1 112.76288 47.26784 20.48 20.48 0 0 1-29.24544 28.71296 116.736 116.736 0 0 0-83.51744-35.0208 20.48 20.48 0 1 1 0-40.96z m145.57184 96.29696A158.1056 158.1056 0 1 1 512 225.89440000000002a20.48 20.48 0 1 1 0 40.96 117.1456 117.1456 0 1 0 107.88864 71.35232 20.48 20.48 0 0 1 37.6832-15.9744z"  horiz-adv-x="1024" />

    
    <glyph glyph-name="-singer" unicode="&#58905;" d="M679.44448 747.7248a204.8 204.8 0 1 1 34.07872-81.22368 20.48 20.48 0 0 1-40.30464-7.3728 163.84 163.84 0 1 0-27.2384 64.9216 20.48 20.48 0 0 1 33.46432 23.63392zM880.64 15.360000000000014a368.64 368.64 0 0 1-617.75872 271.72864 20.48 20.48 0 1 1 27.68896-30.18752A326.0416 326.0416 0 0 0 512 343.03999999999996a327.68 327.68 0 0 0 327.68-327.68 20.48 20.48 0 1 1 40.96 0zM229.376 252.10879999999997a367.16544 367.16544 0 0 1-86.016-236.7488 20.48 20.48 0 1 1 40.96 0c0 78.06976 27.36128 151.83872 76.47232 210.41152a20.48 20.48 0 0 1-31.37536 26.33728zM491.52 220.15999999999997v-81.92c0-11.264 9.216-20.48 20.48-20.48 11.4688 0 20.48 9.05216 20.48 20.48v81.92c0 11.264-9.216 20.48-20.48 20.48-11.4688 0-20.48-9.05216-20.48-20.48z m-40.96 0c0 33.91488 27.27936 61.44 61.44 61.44 33.91488 0 61.44-27.60704 61.44-61.44v-81.92c0-33.91488-27.27936-61.44-61.44-61.44-33.91488 0-61.44 27.60704-61.44 61.44v81.92zM491.52 97.27999999999997v-81.92a20.48 20.48 0 1 1 40.96 0v81.92a20.48 20.48 0 1 1-40.96 0z"  horiz-adv-x="1024" />

    
    <glyph glyph-name="-picture" unicode="&#58906;" d="M962.56 322.55999999999995v-204.88192c0-33.792-27.648-61.35808-61.44-61.35808h-327.68a20.48 20.48 0 1 1 0-40.96h327.68c56.36096 0 102.4 45.8752 102.4 102.31808V322.55999999999995a20.48 20.48 0 1 1-40.96 0zM450.56 56.32000000000005H122.88c-33.91488 0-61.44 27.4432-61.44 61.19424V609.52576C61.44 643.19488 89.088 670.72 122.88 670.72h204.8a20.48 20.48 0 0 1 0 40.96H122.88A102.44096 102.44096 0 0 1 20.48 609.52576v-492.01152A102.35904 102.35904 0 0 1 122.88 15.360000000000014h327.68a20.48 20.48 0 1 1 0 40.96z m405.17632 291.34848l-314.08128 157.04064a20.48 20.48 0 0 1-21.74976-2.12992l-368.64-286.72a20.48 20.48 0 1 1 25.14944-32.3584l358.44096 278.81472 316.12928-158.1056a20.48 20.48 0 0 1 24.04352 4.3008l122.88 129.96608a20.48 20.48 0 0 1 5.61152 14.04928V609.0752A102.52288 102.52288 0 0 1 901.12 711.6800000000001H409.6a20.48 20.48 0 0 1 0-40.96h491.52c33.91488 0 61.44-27.60704 61.44-61.6448v-148.39808l-106.82368-113.00864zM266.24 384a81.92 81.92 0 1 1 0 163.84 81.92 81.92 0 0 1 0-163.84z m0 40.96a40.96 40.96 0 1 0 0 81.92 40.96 40.96 0 0 0 0-81.92z"  horiz-adv-x="1024" />

    
    <glyph glyph-name="-download" unicode="&#58907;" d="M204.8 375.808a20.48 20.48 0 0 1-13.76256-35.6352l119.1936-108.09344a20.48 20.48 0 1 1 27.52512 30.35136L257.88416 334.84799999999996h135.9872a20.48 20.48 0 0 1 20.48 20.48V657.03936c0 52.8384 43.33568 95.60064 97.64864 95.60064 53.8624 0 97.6896-43.17184 97.6896-95.60064a20.48 20.48 0 1 1 40.96 0c0 75.20256-62.30016 136.56064-138.6496 136.56064-76.8 0-138.6496-60.90752-138.6496-136.56064V375.808H204.8z m180.92032-156.8768a20.48 20.48 0 1 1-27.48416-30.3104l140.00128-126.976a20.48 20.48 0 0 1 27.52512 0l162.48832 147.29216a20.48 20.48 0 1 1-27.52512 30.35136L512 104.44799999999998 385.72032 218.9312z m264.92928 147.53792V587.44832a20.48 20.48 0 1 1-40.96 0V355.328a20.48 20.48 0 0 1 20.48-20.48h135.9872l-60.70272-55.00928a20.48 20.48 0 0 1 27.52512-30.3104l99.9424 90.64448A20.48 20.48 0 0 1 819.2 375.808h-168.5504v-9.33888zM942.08 15.360000000000014H409.6a20.48 20.48 0 1 1 0-40.96h532.48a20.48 20.48 0 1 1 0 40.96z m-614.4 0H286.72a20.48 20.48 0 1 1 0-40.96h40.96a20.48 20.48 0 1 1 0 40.96z m-122.88 0H81.92a20.48 20.48 0 1 1 0-40.96h122.88a20.48 20.48 0 1 1 0 40.96z"  horiz-adv-x="1024" />

    
    <glyph glyph-name="-like" unicode="&#58911;" d="M49.5616 430.2848c12.73856-69.09952 38.42048-139.75552 75.65312-206.97088 72.9088-131.52256 180.06016-230.97344 289.66912-271.36 28.4672-13.5168 61.72672-20.15232 96.8704-19.29216a215.57248 215.57248 0 0 1 97.56672 19.98848 400.46592 400.46592 0 0 1 67.33824 32.68608c20.48 12.288 40.67328 26.50112 60.37504 42.5984a20.48 20.48 0 0 1-25.92768 31.70304c-18.14528-14.82752-36.74112-27.93472-55.5008-39.19872a370.4832 370.4832 0 0 0-62.09536-30.06464 178.9952 178.9952 0 0 0-81.75616-16.7936c-29.9008-0.65536-56.85248 4.7104-81.1008 16.13824-101.41696 37.43744-201.19552 130.048-269.59872 253.46048-35.14368 63.40608-59.26912 129.8432-71.2704 194.56a20.48 20.48 0 0 1-40.26368-7.45472z m730.64448-363.35616a698.94144 698.94144 0 0 1 117.1456 156.38528c9.6256 17.408 18.47296 35.0208 26.58304 52.8384a705.3312 705.3312 0 0 1 25.47712 64.22528 20.48 20.48 0 1 1-38.78912 13.18912 664.3712 664.3712 0 0 0-24.00256-60.49792c-7.61856-16.7936-15.9744-33.46432-25.10848-49.88928a658.0224 658.0224 0 0 0-110.1824-147.2512 20.48 20.48 0 1 1 28.8768-28.99968zM163.71712 784.1792C73.5232 734.208 30.18752 621.1993600000001 42.1888 483.9424a20.48 20.48 0 1 1 40.79616 3.56352c-10.73152 122.71616 26.54208 219.87328 100.59776 260.9152 84.54144 46.85824 205.49632 13.80352 313.83552-85.77024a20.48 20.48 0 0 1 27.72992 0c108.3392 99.5328 229.29408 132.62848 313.83552 85.77024 86.50752-47.96416 122.14272-172.56448 91.7504-321.1264a20.48 20.48 0 1 1 40.09984-8.23296c33.62816 164.2496-7.168 307.07712-111.98464 365.1584-98.59072 54.6816-230.85056 21.62688-347.58656-79.0528-116.736 100.67968-248.95488 133.7344-347.5456 79.0528zM274.2272 689.3568a155.27936 155.27936 0 0 1-44.81024-25.84576 20.48 20.48 0 0 1 26.09152-31.58016 114.4832 114.4832 0 0 0 33.01376 19.0464 20.48 20.48 0 1 1-14.336 38.37952zM192.38912 620.01152c-23.38816-38.912-34.48832-89.21088-32.68608-145.24416a20.48 20.48 0 1 1 40.96 1.35168c-1.55648 48.57856 7.7824 91.17696 26.8288 122.79808a20.48 20.48 0 0 1-35.10272 21.0944z"  horiz-adv-x="1024" />

    
    <glyph glyph-name="-lately" unicode="&#58912;" d="M127.539 638.092c-47.831-71.272-76.34-159-76.34-253.386 0-0.248 0-0.497 0.001-0.745 0-153.983 76.186-295.18 200.947-380.543 25.344-17.357 52.377-32.103 80.678-44.083 2.21-0.961 4.783-1.52 7.488-1.52 10.606 0 19.203 8.598 19.203 19.203 0 7.901-4.772 14.688-11.591 17.635-60.095 25.766-110.772 62.753-151.553 108.72-34.399 8.729-106.774 136.05-106.774 280.275 0 0.124 0 0.248 0 0.372 0 84 24.576 164.333 69.965 232.877 1.999 2.982 3.189 6.651 3.189 10.598 0 10.605-8.597 19.203-19.203 19.203-6.658 0-12.524-3.388-15.969-8.535zM388.966-60.173c36.647-10.556 78.741-16.627 122.252-16.627 0.275 0 0.549 0 0.824 0.001 0.001 0 0.052 0 0.105 0 69.374 0 135.173 15.31 194.2 42.736 29.179 13.481 59.362 31.721 87.202 53.264 109.473 84.931 179.251 216.51 179.251 364.388 0 0.145 0 0.291 0 0.436 0.001 0.234 0.001 0.538 0.001 0.843 0 125.161-50.125 238.613-131.396 321.38-3.423 3.494-8.284 5.703-13.66 5.703-10.611 0-19.212-8.602-19.212-19.212 0-5.233 2.092-9.979 5.487-13.443 74.433-75.783 120.382-179.764 120.382-294.477 0-0.287 0-0.574-0.001-0.861 0-132.512-61.44-254.855-164.352-334.419-58.655-45.665-131.02-76.412-209.992-85.377 28.423 2.628-9.203-2.579-48.047-2.579-40.136 0-78.974 5.559-115.786 15.949 1.262-0.153-0.735 0.175-2.808 0.175-10.604 0-19.2-8.596-19.2-19.2 0-9.025 6.228-16.597 14.619-18.651zM794.739 747.8779999999999c-76.969 60.435-175.239 96.923-282.033 96.923-0.248 0-0.497 0-0.745-0.001-0.217 0.001-0.519 0.001-0.822 0.001-124.053 0-236.604-49.246-319.17-129.256-3.504-3.382-5.755-8.282-5.755-13.708 0-10.604 8.596-19.2 19.2-19.2 5.178 0 9.877 2.049 13.33 5.382 75.545 73.236 178.698 118.383 292.395 118.383 0.302 0 0.605 0 0.907-0.001 95.185 0 185.541-31.565 259.115-88.819 3.219-2.521 7.327-4.043 11.789-4.043 10.61 0 19.21 8.601 19.21 19.21 0 6.147-2.887 11.62-7.38 15.136zM512 384v288c0 0 0 0 0 0 0 10.604-8.596 19.2-19.2 19.2-10.604 0-19.2-8.596-19.2-19.2 0 0 0 0 0 0v-307.2c0-10.604 8.596-19.2 19.2-19.2 0 0 0 0 0 0h307.2c10.604 0 19.2 8.596 19.2 19.2s-8.596 19.2-19.2 19.2h-288z"  horiz-adv-x="1024" />

    
    <glyph glyph-name="-star" unicode="&#58915;" d="M698.85952 672.39936c13.9264 62.58688-28.59008 115.54816-92.89728 115.54816-23.7568 0-40.83712-8.02816-49.60256-25.43616-5.81632-11.55072-6.5536-20.19328-6.47168-44.07296 0.12288-18.71872-0.4096-27.648-2.78528-38.37952l-50.9952-117.67808h-53.16608a112.51712 112.51712 0 0 1-112.51712-112.4352v-316.49792c0-61.8496 50.62656-71.4752 112.80384-71.4752a22.528 22.528 0 1 1 0 45.09696c-37.2736 0-67.70688-10.56768-67.70688 26.37824V449.9456c0 37.15072 30.22848 67.33824 67.42016 67.33824h67.9936a22.528 22.528 0 0 1 20.72576 13.63968L589.824 666.2144000000001c4.66944 19.00544 5.3248 30.47424 5.20192 52.4288-0.08192 15.5648 0.4096 21.0944 1.59744 23.47008 0.08192 0.2048 1.10592 0.69632 9.33888 0.69632 35.4304 0 56.5248-26.2144 48.86528-60.66176l-30.55616-137.46176a22.528 22.528 0 0 1 21.99552-27.4432h248.34048c34.6112 0 53.61664-25.02656 44.52352-58.44992l-33.3824-122.30656a22.528 22.528 0 0 1 43.54048-11.8784l33.34144 122.34752c16.91648 62.01344-23.59296 115.38432-88.02304 115.38432h-220.20096l24.45312 110.01856z m-165.43744-610.42688h225.23904c60.33408 0 120.29952 4.83328 136.15104 62.91456l30.06464 110.34624a22.528 22.528 0 0 1-43.49952 11.8784l-30.1056-110.3872c-10.48576-38.42048-52.6336-29.65504-92.61056-29.65504h-225.23904a22.528 22.528 0 1 1 0-45.09696zM240.18944 291.67616v-101.49888c0-44.27776-30.72-78.92992-67.66592-78.92992-36.864 0-67.66592 34.48832-67.66592 78.848v203.20256c0 44.2368 30.72 78.848 67.66592 78.848 36.6592 0 67.66592-35.06176 67.66592-79.29856v-29.0816a22.528 22.528 0 1 1 45.09696 0v29.0816c0 67.9936-49.88928 124.43648-112.76288 124.43648-63.16032 0-112.80384-55.95136-112.80384-123.98592v-203.20256c0-68.1984 49.7664-123.98592 112.80384-123.98592 63.16032 0 112.76288 55.99232 112.76288 124.1088v101.45792a22.528 22.528 0 1 1-45.09696 0zM634.88 158.72000000000003h122.88a20.48 20.48 0 1 1 0 40.96h-122.88a20.48 20.48 0 1 1 0-40.96zM675.84 281.6h122.88a20.48 20.48 0 1 1 0 40.96h-122.88a20.48 20.48 0 1 1 0-40.96zM716.8 404.48h122.88a20.48 20.48 0 1 1 0 40.96h-122.88a20.48 20.48 0 1 1 0-40.96z"  horiz-adv-x="1024" />

    
    <glyph glyph-name="-headphones" unicode="&#58900;" d="M848 384h-16v80c0 2.72-3.664 272-320 272S192 466.72 192 464v-80h-16C78.96 384 0 305.03999999999996 0 208s78.96-176 176-176h48V464c0 9.792 3.28 240 288 240 283.824 0 287.968-230.224 288-240v-432h48c97.04 0 176 78.96 176 176s-78.96 176-176 176zM192 64h-16c-79.408 0-144 64.608-144 144s64.592 144 144 144h16v-288z m656 0h-16V352h16c79.408 0 144-64.608 144-144s-64.592-144-144-144z"  horiz-adv-x="1024" />

    
    <glyph glyph-name="-ghettoblaster" unicode="&#58908;" d="M280 96C381.456 96 464 178.54399999999998 464 280S381.456 464 280 464 96 381.456 96 280 178.544 96 280 96z m-133.808 112H208v-61.808A152.96 152.96 0 0 0 146.192 208zM240 133.51999999999998V208h80v-74.48c-12.768-3.504-26.144-5.52-40-5.52s-27.232 2.016-40 5.52zM240 240v80h80v-80h-80z m112-93.808V208h61.808A152.96 152.96 0 0 0 352 146.192zM426.48 240H352v80h74.48c3.488-12.768 5.52-26.144 5.52-40s-2.032-27.232-5.52-40z m-12.672 112H352v61.808A152.96 152.96 0 0 0 413.808 352zM320 426.48V352h-80v74.48c12.768 3.504 26.144 5.52 40 5.52s27.232-2.016 40-5.52z m-112-12.672V352H146.192A152.96 152.96 0 0 0 208 413.808zM133.52 320H208v-80H133.52C130.032 252.76800000000003 128 266.144 128 280s2.032 27.232 5.52 40zM928 352H528v-272h400V352z m-32-240H560V320h336v-208zM928 480h-112v-96h112v96z m-32-64h-48v32h48v-32zM784 480h-112v-96h112v96z m-32-64h-48v32h48v-32zM640 480h-112v-96h112v96z m-32-64h-48v32h48v-32zM960 784H64v-208H0v-592h1024V576h-64V784z m-32-32v-32H96V752h832zM96 688h832v-112H96v112z m896-672H32V544h960v-528z"  horiz-adv-x="1024" />

    
    <glyph glyph-name="-portable" unicode="&#58909;" d="M320 16c123.52 0 224 100.48 224 224s-100.48 224-224 224S96 363.52 96 240s100.48-224 224-224zM153.984 144H224v-70.016A193.024 193.024 0 0 0 153.984 144zM256 59.200000000000045V144h128v-84.8c-20.048-7.12-41.536-11.2-64-11.2s-43.952 4.08-64 11.2z m0 116.8v128h128v-128h-128z m160-102.016V144h70.016A193.024 193.024 0 0 0 416 73.98400000000004zM500.8 176H416v128h84.8c7.12-20.048 11.2-41.536 11.2-64s-4.08-43.952-11.2-64z m-14.784 160H416v70.016A193.024 193.024 0 0 0 486.016 336zM384 420.8V336h-128v84.8c20.048 7.12 41.536 11.2 64 11.2s43.952-4.08 64-11.2z m-160-14.784V336H153.984A193.024 193.024 0 0 0 224 406.016zM139.2 304H224v-128H139.2c-7.12 20.048-11.2 41.536-11.2 64s4.08 43.952 11.2 64zM784 464h-112v-96h112v96z m-32-64h-48v32h48v-32zM928 464h-112v-96h112v96z m-32-64h-48v32h48v-32zM832 208c-52.944 0-96-43.056-96-96s43.056-96 96-96 96 43.056 96 96-43.056 96-96 96z m0-160c-35.296 0-64 28.704-64 64 0 29.728 20.464 54.576 48 61.728V128h32v45.728c27.536-7.152 48-32 48-61.728 0-35.296-28.704-64-64-64zM160 624H112v3.568L851.952 816.496l-7.904 31.008L80 652.432V624H32v-64H0v-640h1024V560H160v64z m-96-32h64v-32H64v32z m928-640H32V528h960v-576z"  horiz-adv-x="1024" />

    
    <glyph glyph-name="-record" unicode="&#58910;" d="M511.968 896C375.2 896 246.64 842.736 149.936 746.016 53.232 649.328-0.016 520.736 0 384c0-136.768 53.248-265.328 149.952-362.048C246.64-74.75199999999995 375.2-128 511.984-128h0.064C794.352-127.98400000000004 1024.016 101.71199999999999 1024 384.016c0 136.752-53.232 265.328-149.92 362.032C777.376 842.736 648.832 896 511.968 896zM512-96v-16 16h-0.048c-128.192 0-248.736 49.936-339.376 140.576C81.92 135.24800000000005 32 255.77599999999995 32 384c-0.016 128.208 49.904 248.736 140.56 339.392C263.216 814.064 383.744 864 512.064 864c128.208 0 248.736-49.92 339.376-140.576 90.656-90.656 140.544-211.2 140.544-339.408C992 119.36000000000001 784-95.98400000000004 512-96zM512 528c-79.376 0-143.984-64.592-144-143.968C368 304.60799999999995 432.608 240 512.016 240 591.408 240.03200000000004 656 304.64 656 384c0 79.392-64.608 144-144 144z m0.016-256C450.256 272 400 322.256 400 384.032 400.016 445.76 450.256 496 512 496c61.76 0 112-50.24 112-112 0-61.728-50.24-111.984-111.984-112zM512 112v32c-132.336 0-240 107.664-240 240h-32c0-149.984 122.016-272 272-272zM512 656v-32c132.336 0 240-107.664 240-240h32c0 149.984-122.016 272-272 272zM160 384H128c0-211.728 176-384 384-384v32c-192 0-352 157.904-352 352zM512 768v-32c194.096 0 352-157.904 352-352h32C896 595.7280000000001 723.728 768 512 768z"  horiz-adv-x="1024" />

    
    <glyph glyph-name="-logo" unicode="&#58880;" d="M619.89375125 859.20472219c26.37402844 7.19291719 55.14569531 7.19291719 81.51972375 0 31.16930625-7.19291719 59.94097312-21.57875063 83.91736219-40.75986188 9.59055563-7.19291719 16.78347281-14.38583344 21.57875062-26.37402843 7.19291719-16.78347281 4.79527781-35.96458406-4.79527781-50.3504175-7.19291719-11.988195-21.57875063-21.57875063-38.3622225-23.97638907-11.988195-2.39763937-23.97638906 0-35.96458406 7.19291719-4.79527781 2.39763937-9.59055563 9.59055563-16.78347281 11.98819406-16.78347281 9.59055563-33.56694469 19.18111125-52.74805594 16.78347282-14.38583344 0-26.37402844-7.19291719-33.56694563-16.78347282-9.59055563-9.59055563-11.988195-21.57875063-9.59055562-33.56694468 7.19291719-23.97638906 11.988195-50.3504175 19.18111219-74.32680657 47.95277813-2.39763937 93.50791781-14.38583344 134.26777968-38.3622225 38.3622225-23.97638906 74.32680656-55.14569531 103.09847344-91.11027937 23.97638906-31.16930625 43.15750031-67.13389031 52.74805594-105.49611281 11.988195-40.75986188 16.78347281-83.91736219 11.988195-124.67722407-2.39763937-35.96458406-9.59055563-69.53152875-21.57875063-103.09847343-31.16930625-79.12208438-86.31500156-151.0512525-160.64180718-196.60639219-52.74805594-33.56694469-115.08666844-55.14569531-177.42528094-62.3386125-43.15750031-4.79527781-86.31500156-4.79527781-129.47250188 2.39763937-88.71264 14.38583344-170.23236375 57.54333375-234.96861468 122.27958563-62.3386125 62.3386125-105.49611281 143.85833531-124.67722407 230.17333594-7.19291719 64.73625094-7.19291719 129.47250188 7.19291719 194.20875375 16.78347281 76.72444594 57.54333375 151.0512525 110.29138969 208.59458625 45.55513969 47.95277813 100.700835 83.91736219 160.64180812 110.29139062 7.19291719 2.39763937 11.988195 4.79527781 19.18111125 7.19291625 14.38583344 2.39763937 28.77166688 0 40.75986188-9.59055562 16.78347281-11.988195 23.97638906-31.16930625 21.57875062-50.3504175-2.39763937-19.18111125-16.78347281-35.96458406-33.56694468-43.15750032-59.94097312-23.97638906-115.08666844-64.73625094-153.44889188-115.08666843C224.28332937 513.94471688 200.30693938 458.79902156 193.11402313 401.25568781c-7.19291719-57.54333375 0-115.08666844 19.18111124-170.23236375 28.77166688-79.12208438 88.71264-146.25597469 163.03944657-184.61819718 45.55513969-23.97638906 95.90555719-35.96458406 146.25597468-35.96458407 40.75986188 0 83.91736219 7.19291719 122.27958563 21.57875063 33.56694469 11.988195 67.13389031 31.16930625 93.50791781 55.14569437 26.37402844 21.57875063 47.95277813 50.3504175 62.33861156 79.12208532 7.19291719 14.38583344 16.78347281 31.16930625 19.18111219 47.95277812 14.38583344 47.95277813 16.78347281 100.700835 2.39763844 148.65361313-11.988195 40.75986188-35.96458406 76.72444594-67.13388938 103.09847437-14.38583344 11.988195-28.77166688 23.97638906-45.55513968 33.56694469-14.38583344 7.19291719-28.77166688 14.38583344-45.55513969 16.78347281 11.988195-43.15750031 21.57875063-86.31500156 33.56694469-127.07486344 2.39763937-9.59055563 4.79527781-21.57875063 4.79527781-31.16930625 2.39763937-43.15750031-14.38583344-88.71264-43.15750031-122.27958469-26.37402844-31.16930625-64.73625094-55.14569531-105.49611282-62.3386125-43.15750031-9.59055563-91.11027938 0-129.47250187 23.97638907-35.96458406 23.97638906-62.3386125 59.94097312-76.72444594 98.30319656-7.19291719 21.57875063-11.988195 45.55513969-11.98819406 69.53152875-2.39763937 52.74805594 11.988195 103.09847344 40.75986094 146.25597469 33.56694469 50.3504175 88.71264 86.31500156 148.65361406 103.09847343-4.79527781 16.78347281-9.59055563 33.56694469-11.988195 50.3504175-11.988195 35.96458406-9.59055563 76.72444594 7.19291719 107.89375125 9.59055563 19.18111125 21.57875063 35.96458406 38.3622225 47.95277907C579.13389031 840.02361094 598.31500156 852.011805 619.89375125 859.20472219m-139.0630575-388.41750563c-16.78347281-16.78347281-26.37402844-38.3622225-31.16930625-59.94097312-4.79527781-19.18111125-4.79527781-40.75986188 0-62.3386125 4.79527781-21.57875063 16.78347281-43.15750031 35.96458406-57.54333375 14.38583344-9.59055563 33.56694469-14.38583344 52.74805688-9.59055563 33.56694469 4.79527781 59.94097312 35.96458406 59.94097312 69.53152875-2.39763937 7.19291719-2.39763937 16.78347281-4.79527781 23.97638907-11.988195 45.55513969-23.97638906 93.50791781-35.96458406 139.0630575-28.77166688-7.19291719-55.14569531-21.57875063-76.72444594-43.15750032z"  horiz-adv-x="1024" />

    


  </font>
</defs>
</svg>
